<?xml version="1.0" encoding="UTF-8" standalone="no"?>
<svg
   width="346.41016151377545"
   viewBox="0,0,346.41016151377545,400"
   version="1.1"
   id="svg10"
   sodipodi:docname="rgeoviz.svg"
   xml:space="preserve"
   inkscape:version="1.3.2 (1:1.3.2+202311252150+091e20ef0f)"
   xmlns:inkscape="http://www.inkscape.org/namespaces/inkscape"
   xmlns:sodipodi="http://sodipodi.sourceforge.net/DTD/sodipodi-0.dtd"
   xmlns="http://www.w3.org/2000/svg"
   xmlns:svg="http://www.w3.org/2000/svg"><sodipodi:namedview
     id="namedview10"
     pagecolor="#ffffff"
     bordercolor="#999999"
     borderopacity="1"
     inkscape:showpageshadow="0"
     inkscape:pageopacity="0"
     inkscape:pagecheckerboard="0"
     inkscape:deskcolor="#d1d1d1"
     inkscape:zoom="1.2845898"
     inkscape:cx="176.71011"
     inkscape:cy="218.35764"
     inkscape:window-width="3440"
     inkscape:window-height="1403"
     inkscape:window-x="0"
     inkscape:window-y="0"
     inkscape:window-maximized="1"
     inkscape:current-layer="svg10" /><defs
     id="defs1"><pattern
       id="hatch"
       patternUnits="userSpaceOnUse"
       width="5"
       height="5"
       patternTransform="rotate(45)"><line
         x1="0"
         y1="5"
         x2="0"
         stroke="white"
         stroke-linejoin="butt"
         stroke-width="1.3333333333333333"
         stroke-opacity="0.25"
         id="line1" /></pattern><filter
       id="pencil1_qfukxvupiuehxtt"
       x="0"
       y="-0.00051729703"
       width="1"
       height="1.0005173"><feTurbulence
         baseFrequency="0.03"
         id="feTurbulence1" /><feDisplacementMap
         in="SourceGraphic"
         scale="5"
         id="feDisplacementMap1"
         xChannelSelector="A"
         yChannelSelector="A" /></filter><filter
       id="pencil2_qfukxvupiuehxtt"
       x="0"
       y="0"
       width="1"
       height="1"><feTurbulence
         baseFrequency="0.06"
         id="feTurbulence2" /><feDisplacementMap
         in="SourceGraphic"
         scale="7"
         id="feDisplacementMap2"
         xChannelSelector="A"
         yChannelSelector="A" /></filter></defs><path
     d="M346.41,100L346.41,300L173.205,400L0,300L0,100L173.205,0Z"
     stroke="none"
     fill="#c42727"
     id="path1"
     style="fill:#9aece1;fill-opacity:0.42745098" /><path
     d="M346.41,100L346.41,300L173.205,400L0,300L0,100L173.205,0Z"
     stroke="none"
     fill="#e63e32"
     id="path2"
     style="fill:#02886f;fill-opacity:1"
     transform="translate(173.20508075688772, 200) scale(0.95) translate(-173.20508075688772, -200) " /><clipPath
     id="sphere"><path
       d="M33.18129921571529,213.59791227289261C30.051971494145572,209.24338566034407,26.922643772575885,204.6216928301727,25.35797991179101,202.31084641508698C23.793316051006133,200.00000000000125,23.79331605100607,200.00000000000114,23.79331605100599,200.00000000000102C23.793316051005917,200.0000000000009,23.79331605100583,200.00000000000077,23.79331605100577,200.00000000000065C23.793316051005707,200.00000000000057,23.79331605100567,200.00000000000048,23.793316051005636,200.00000000000045C23.793316051005604,200.00000000000037,23.793316051005576,200.00000000000037,23.793316051005558,200.00000000000034C23.793316051005537,200.0000000000003,23.79331605100553,200.0000000000003,23.793316051005508,200.00000000000026C23.79331605100549,200.00000000000023,23.793316051005462,200.0000000000002,23.793316051005444,200.00000000000014C23.793316051005423,200.0000000000001,23.793316051005416,200.0000000000001,23.79331605100541,200.00000000000009C23.793316051005405,200.00000000000009,23.793316051005405,200.00000000000009,23.7933160510054,200.00000000000009C23.793316051005394,200.00000000000009,23.793316051005387,200.00000000000003,23.79331605100538,200.00000000000003C23.793316051005377,200.00000000000003,23.793316051005377,200.00000000000003,23.793316051005377,200.00000000000003C23.793316051005377,200.00000000000003,23.793316051005377,200.00000000000003,23.793316051005377,200.00000000000003C23.793316051005377,200.00000000000003,23.793316051005377,200.00000000000003,23.793316051005377,200.00000000000003C23.793316051005377,200.00000000000003,23.793316051005377,200.00000000000003,23.793316051005377,200.00000000000003C23.793316051005377,200.00000000000003,23.793316051005377,200.00000000000003,23.793316051005373,200C23.793316051005366,200,23.79331605100536,200,23.793316051005352,200C23.79331605100535,200,23.79331605100535,200,23.79331605100535,200C23.79331605100535,200,23.79331605100535,200,23.79331605100535,200C23.79331605100535,200,23.79331605100535,200,23.79331605100535,200C23.79331605100535,200,23.79331605100535,200,23.79331605100535,200C23.79331605100535,200,23.79331605100535,200,23.79331605100535,200C23.79331605100535,200,23.79331605100535,200,23.79331605100535,200C23.79331605100535,200,23.79331605100535,200,23.79331605100535,200C23.79331605100535,200,23.79331605100535,200,23.79331605100535,200C23.79331605100535,200,23.79331605100535,200,23.79331605100535,200C23.79331605100535,200,23.79331605100535,200,23.79331605100535,200C23.79331605100535,200,23.79331605100535,200,23.79331605100535,200C23.79331605100535,200,23.79331605100535,200,23.79331605100535,200C23.79331605100535,200,23.79331605100535,200,23.79331605100535,200C23.79331605100535,200,23.79331605100535,200,23.79331605100535,200C23.79331605100535,200,23.79331605100535,200,23.79331605100535,200C23.79331605100535,200,23.79331605100535,200,23.79331605100535,200C23.79331605100535,200,23.79331605100535,200,23.79331605100535,200C23.79331605100535,200,23.79331605100535,200,23.79331605100535,200C23.79331605100535,200,23.79331605100535,200,23.79331605100535,200C23.79331605100535,200,23.79331605100535,200,23.79331605100535,200C23.79331605100535,200,23.79331605100535,200,23.79331605100535,200C23.79331605100535,200,23.79331605100535,200,23.79331605100535,200C23.79331605100535,200,23.79331605100535,200,23.79331605100535,200C23.79331605100535,200,23.79331605100535,200,23.79331605100535,200C23.79331605100535,200,23.79331605100535,200,23.79331605100535,200C23.79331605100535,200,23.79331605100535,200,23.79331605100535,200C23.79331605100535,200,23.79331605100535,200,23.79331605100535,200C23.79331605100535,200,23.79331605100535,200,23.79331605100535,200C23.79331605100535,200,23.79331605100535,200,23.79331605100535,200C23.79331605100535,200,23.79331605100535,200,23.79331605100535,200C23.79331605100535,200,23.79331605100535,200,23.79331605100535,200C23.79331605100535,200,23.79331605100535,200,23.79331605100535,200C23.79331605100535,200,23.79331605100535,200,23.79331605100535,200C23.79331605100535,200,23.79331605100535,200,23.79331605100535,200C23.79331605100535,200,23.79331605100535,200,23.79331605100535,200C23.79331605100535,200,23.79331605100535,200,23.79331605100535,200C23.79331605100535,200,23.79331605100535,200,23.79331605100535,200C23.79331605100535,200,23.79331605100535,200,23.79331605100535,200C23.79331605100535,200,23.79331605100535,200,23.79331605100535,200C23.79331605100535,200,23.79331605100535,200,23.79331605100535,200C23.79331605100535,200,23.79331605100535,200,23.79331605100535,200C23.79331605100535,200,23.79331605100535,200,23.79331605100535,200C23.79331605100535,200,23.79331605100535,200,23.79331605100535,200C23.79331605100535,200,23.79331605100535,200,23.79331605100535,200C23.79331605100535,200,23.79331605100535,200,23.79331605100535,200C23.79331605100535,200,23.79331605100535,200,23.79331605100535,200C23.79331605100535,200,23.79331605100535,200,23.79331605100535,200C23.79331605100535,200,23.79331605100535,200,23.79331605100535,200C23.79331605100535,200,23.79331605100535,200,23.79331605100535,200C23.79331605100535,200,23.79331605100535,200,23.79331605100535,200C23.79331605100535,200,23.79331605100535,200,23.79331605100535,200C23.79331605100535,200,23.79331605100535,200,23.79331605100535,200C23.79331605100535,200,23.79331605100535,200,23.79331605100535,200C23.79331605100535,200,23.79331605100535,200,23.79331605100535,200C23.79331605100535,200,23.79331605100535,200,23.79331605100535,200C23.79331605100535,200,23.79331605100535,200,23.79331605100535,200C23.79331605100535,200,23.79331605100535,200,23.79331605100535,200C23.79331605100535,200,23.79331605100535,200,23.79331605100535,200C23.79331605100535,200,23.79331605100535,200,23.79331605100535,200C23.79331605100535,200,23.79331605100535,200,23.79331605100535,200C23.79331605100535,200,23.79331605100535,200,23.79331605100535,200C23.79331605100535,200,23.79331605100535,200,23.79331605100535,200C23.79331605100535,200,23.79331605100535,200,23.79331605100535,200C23.79331605100535,200,23.79331605100535,200,23.79331605100535,200C23.79331605100535,200,23.79331605100535,200,23.79331605100535,200C23.79331605100535,200,23.79331605100535,200,23.79331605100535,200C23.79331605100535,200,23.79331605100535,200,23.79331605100535,200C23.79331605100535,200,23.79331605100535,200,23.793316051005352,200C23.79331605100536,200,23.793316051005366,200,23.793316051005373,199.99999999999997C23.793316051005377,199.99999999999997,23.793316051005377,199.99999999999997,23.793316051005377,199.99999999999997C23.793316051005377,199.99999999999997,23.793316051005377,199.99999999999997,23.793316051005377,199.99999999999997C23.793316051005377,199.99999999999997,23.793316051005377,199.99999999999997,23.793316051005377,199.99999999999997C23.793316051005377,199.99999999999997,23.793316051005377,199.99999999999997,23.793316051005377,199.99999999999997C23.793316051005377,199.99999999999997,23.793316051005377,199.99999999999997,23.79331605100538,199.99999999999997C23.793316051005387,199.99999999999997,23.793316051005394,199.99999999999991,23.7933160510054,199.99999999999991C23.793316051005405,199.99999999999991,23.793316051005405,199.99999999999991,23.79331605100541,199.9999999999999C23.793316051005416,199.9999999999999,23.793316051005423,199.9999999999999,23.793316051005444,199.99999999999986C23.793316051005462,199.9999999999998,23.79331605100549,199.99999999999977,23.820781409674293,199.95690505592634C23.848246768343092,199.91381011185288,23.90317748568067,199.82762022370608,25.486157100910663,197.49137733984995C27.06913671614066,195.15513445599382,30.180165229263082,190.56883857642836,33.291193742385495,186.2461518257518C36.402222255507915,181.9234650750753,39.51325076863032,177.8643874532876,42.624279281752735,174.03595098194296C45.73530779487515,170.20751451059832,48.846336307997554,166.60971918969662,51.95736482111997,163.21626018814922C55.06839333424239,159.82280118660182,58.1794218473648,156.63367850440872,61.290450360487206,153.62770445528687C64.40147887360963,150.62173040616497,67.51250738673205,147.79890499011435,70.62353589985446,145.1420345652992C73.73456441297687,142.48516414048404,76.84559292609929,139.9942487069044,79.95662143922169,137.65526055040297C83.0676499523441,135.31627239390158,86.17867846546653,133.12921151447844,89.28970697858894,131.08259773742284C92.40073549171136,129.03598396036725,95.51176400483376,127.12981728567915,98.62279251795617,125.3546985074048C101.73382103107859,123.57957972913043,104.844849544201,121.93550884726979,107.9558780573234,120.41481287571385C111.06690657044582,118.89411690415791,114.17793508356823,117.4967958429067,117.28896359669064,116.21663198383645C120.39999210981307,114.93646812476617,123.51102062293546,113.77346146787686,126.6220491360579,112.72264260531615C129.7330776491803,111.67182374275548,132.84410616230272,110.73319267452347,135.95513467542514,109.90287112129062C139.06616318854756,109.0725495680578,142.17719170166995,108.35053752982417,145.28822021479237,107.73393037040877C148.3992487279148,107.11732321099343,151.5102772410372,106.60612093039633,154.6213057541596,106.19830755642259C157.73233426728203,105.79049418244885,160.84336278040442,105.48606971509848,163.95439129352684,105.28384939795927C167.06541980664926,105.08162908082011,170.17644831977168,104.9816129138921,173.28747683289407,104.98341356995024C176.3985053460165,104.9852142260084,179.50953385913894,105.08883170505267,182.62056237226133,105.29466717958492C185.73159088538375,105.50050265411716,188.84261939850614,105.80855612413735,191.95364791162856,106.22002663564065C195.06467642475096,106.63149714714393,198.1757049378734,107.14638470013033,201.28673345099583,107.76672035412747C204.39776196411822,108.38705600812462,207.50879047724064,109.11283976313253,210.6198189903631,109.94699259338455C213.73084750348548,110.78114542363659,216.84187601660787,111.72366732913271,219.9529045297303,112.77845470273076C223.0639330428527,113.83324207632882,226.1749615559751,115.00029491802877,229.2859900690975,116.28460315533493C232.39701858221994,117.56891139264111,235.50804709534236,118.97047502555351,238.61907560846475,120.4955354691469C241.73010412158717,122.02059591274026,244.84113263470962,123.66915316701467,247.95216114783202,125.44890769762821C251.0631896609544,127.22866222824176,254.17421817407683,129.13961403519446,257.2852466871992,131.1911961507269C260.39627520032167,133.24277826625934,263.50730371344406,135.43499069037154,266.61833222656645,137.7793541398465C269.7293607396889,140.12371758932147,272.8403892528113,142.6202320641592,275.9514177659337,145.28297528269752C279.06244627905613,147.9457185012358,282.1734747921785,150.77469046347466,285.284503305301,153.78714737719773C288.3955318184234,156.7996042909208,291.5065603315458,159.99554615612809,294.6175888446682,163.39624028802993C297.7286173577906,166.79693441993177,300.83964587091305,170.4023808185282,303.95067438403544,174.23898705986576C307.0617028971579,178.07559330120333,310.1727314102803,182.14335938528208,313.28375992340267,186.4753881824279C316.3947884365251,190.8074169795738,319.5058169496475,195.40370848978674,321.0613312062087,197.7018542448932C322.6168454627699,199.9999999999997,322.6168454627699,199.9999999999997,322.61684546276996,199.99999999999974C322.6168454627699,199.9999999999997,322.6168454627699,199.9999999999997,322.61684546276996,199.99999999999974C322.6168454627699,199.9999999999997,322.6168454627699,199.9999999999997,322.61684546276996,199.99999999999974C322.6168454627699,199.9999999999997,322.6168454627699,199.9999999999997,322.61684546276996,199.99999999999974C322.6168454627699,199.9999999999997,322.6168454627699,199.9999999999997,322.61684546276996,199.99999999999974C322.6168454627699,199.9999999999997,322.6168454627699,199.9999999999997,322.61684546276996,199.99999999999974C322.6168454627699,199.9999999999997,322.6168454627699,199.9999999999997,322.61684546276996,199.99999999999974C322.6168454627699,199.9999999999997,322.6168454627699,199.9999999999997,322.61684546276996,199.99999999999974C322.61684546276996,199.99999999999977,322.61684546276996,199.9999999999998,322.61684546277,199.99999999999986C322.61684546277,199.9999999999999,322.61684546277,199.9999999999999,322.61684546277,199.99999999999991C322.61684546277,199.99999999999991,322.61684546277,199.99999999999991,322.61684546277,199.99999999999991C322.61684546277,199.99999999999991,322.6168454627701,199.99999999999997,322.6168454627701,199.99999999999997C322.6168454627701,199.99999999999997,322.6168454627701,199.99999999999997,322.6168454627701,199.99999999999997C322.6168454627701,199.99999999999997,322.6168454627701,199.99999999999997,322.6168454627701,199.99999999999997C322.6168454627701,199.99999999999997,322.6168454627701,199.99999999999997,322.6168454627701,199.99999999999997C322.6168454627701,199.99999999999997,322.6168454627701,199.99999999999997,322.6168454627701,199.99999999999997C322.6168454627701,199.99999999999997,322.6168454627701,199.99999999999997,322.6168454627701,200C322.6168454627701,200,322.6168454627701,200,322.6168454627701,200C322.61684546277013,200,322.61684546277013,200,322.6168454627701,200C322.61684546277013,200,322.61684546277013,200,322.6168454627701,200C322.61684546277013,200,322.61684546277013,200,322.6168454627701,200C322.61684546277013,200,322.61684546277013,200,322.6168454627701,200C322.61684546277013,200,322.61684546277013,200,322.6168454627701,200C322.61684546277013,200,322.61684546277013,200,322.6168454627701,200C322.61684546277013,200,322.61684546277013,200,322.6168454627701,200C322.61684546277013,200,322.61684546277013,200,322.6168454627701,200C322.61684546277013,200,322.61684546277013,200,322.6168454627701,200C322.61684546277013,200,322.61684546277013,200,322.6168454627701,200C322.61684546277013,200,322.61684546277013,200,322.6168454627701,200C322.61684546277013,200,322.61684546277013,200,322.6168454627701,200C322.61684546277013,200,322.61684546277013,200,322.6168454627701,200C322.61684546277013,200,322.61684546277013,200,322.6168454627701,200C322.61684546277013,200,322.61684546277013,200,322.6168454627701,200C322.61684546277013,200,322.61684546277013,200,322.6168454627701,200C322.61684546277013,200,322.61684546277013,200,322.6168454627701,200C322.61684546277013,200,322.61684546277013,200,322.6168454627701,200C322.61684546277013,200,322.61684546277013,200,322.6168454627701,200C322.61684546277013,200,322.61684546277013,200,322.6168454627701,200C322.61684546277013,200,322.61684546277013,200,322.6168454627701,200C322.61684546277013,200,322.61684546277013,200,322.6168454627701,200C322.61684546277013,200,322.61684546277013,200,322.6168454627701,200C322.61684546277013,200,322.61684546277013,200,322.6168454627701,200C322.61684546277013,200,322.61684546277013,200,322.6168454627701,200C322.61684546277013,200,322.61684546277013,200,322.6168454627701,200C322.61684546277013,200,322.61684546277013,200,322.6168454627701,200C322.61684546277013,200,322.61684546277013,200,322.6168454627701,200C322.61684546277013,200,322.61684546277013,200,322.6168454627701,200C322.61684546277013,200,322.61684546277013,200,322.6168454627701,200C322.61684546277013,200,322.61684546277013,200,322.6168454627701,200C322.61684546277013,200,322.61684546277013,200,322.6168454627701,200C322.61684546277013,200,322.61684546277013,200,322.6168454627701,200C322.61684546277013,200,322.61684546277013,200,322.6168454627701,200C322.61684546277013,200,322.61684546277013,200,322.6168454627701,200C322.61684546277013,200,322.61684546277013,200,322.6168454627701,200C322.61684546277013,200,322.61684546277013,200,322.6168454627701,200C322.61684546277013,200,322.61684546277013,200,322.6168454627701,200C322.61684546277013,200,322.61684546277013,200,322.6168454627701,200C322.61684546277013,200,322.61684546277013,200,322.6168454627701,200C322.61684546277013,200,322.61684546277013,200,322.6168454627701,200C322.61684546277013,200,322.61684546277013,200,322.6168454627701,200C322.61684546277013,200,322.61684546277013,200,322.6168454627701,200C322.61684546277013,200,322.61684546277013,200,322.6168454627701,200C322.61684546277013,200,322.61684546277013,200,322.6168454627701,200C322.61684546277013,200,322.61684546277013,200,322.6168454627701,200C322.61684546277013,200,322.61684546277013,200,322.6168454627701,200C322.61684546277013,200,322.61684546277013,200,322.6168454627701,200C322.61684546277013,200,322.61684546277013,200,322.6168454627701,200C322.61684546277013,200,322.61684546277013,200,322.6168454627701,200C322.61684546277013,200,322.61684546277013,200,322.6168454627701,200C322.61684546277013,200,322.61684546277013,200,322.6168454627701,200C322.61684546277013,200,322.61684546277013,200,322.6168454627701,200C322.61684546277013,200,322.61684546277013,200,322.6168454627701,200C322.61684546277013,200,322.61684546277013,200,322.6168454627701,200C322.61684546277013,200,322.61684546277013,200,322.6168454627701,200C322.61684546277013,200,322.61684546277013,200,322.6168454627701,200C322.61684546277013,200,322.61684546277013,200,322.6168454627701,200C322.61684546277013,200,322.61684546277013,200,322.6168454627701,200C322.61684546277013,200,322.61684546277013,200,322.6168454627701,200C322.61684546277013,200,322.61684546277013,200,322.6168454627701,200C322.61684546277013,200,322.61684546277013,200,322.6168454627701,200C322.61684546277013,200,322.61684546277013,200,322.6168454627701,200C322.61684546277013,200,322.61684546277013,200,322.6168454627701,200C322.61684546277013,200,322.61684546277013,200,322.6168454627701,200C322.61684546277013,200,322.61684546277013,200,322.6168454627701,200C322.61684546277013,200,322.61684546277013,200,322.6168454627701,200C322.61684546277013,200,322.61684546277013,200,322.6168454627701,200C322.6168454627701,200,322.6168454627701,200,322.6168454627701,200.00000000000003C322.6168454627701,200.00000000000003,322.6168454627701,200.00000000000003,322.6168454627701,200.00000000000003C322.6168454627701,200.00000000000003,322.6168454627701,200.00000000000003,322.6168454627701,200.00000000000003C322.6168454627701,200.00000000000003,322.6168454627701,200.00000000000003,322.6168454627701,200.00000000000003C322.6168454627701,200.00000000000003,322.6168454627701,200.00000000000003,322.6168454627701,200.00000000000003C322.6168454627701,200.00000000000003,322.6168454627701,200.00000000000003,322.6168454627701,200.00000000000003C322.6168454627701,200.00000000000003,322.61684546277,200.00000000000009,322.61684546277,200.00000000000009C322.61684546277,200.00000000000009,322.61684546277,200.00000000000009,322.61684546277,200.0000000000001C322.61684546277,200.0000000000001,322.61684546277,200.0000000000001,322.61684546277,200.00000000000014C322.61684546276996,200.0000000000002,322.61684546276996,200.00000000000023,322.5925207726609,200.03817184045047C322.5681960825519,200.07634368090075,322.5195467023338,200.15268736180118,321.0374011010702,202.34866858351737C319.5552554998065,204.54464980523366,316.63961367749727,208.8602685677657,313.723971855188,212.94230894550142C310.8083300328787,217.02434932323717,307.89268821056936,220.87281131617658,304.9770463882601,224.5154175995698C302.0614045659508,228.15802388296302,299.1457627436415,231.59477445681003,296.23012092133223,234.84807889923002C293.31447909902295,238.10138334165,290.39883727671366,241.17124165264295,287.4831954544044,244.07592441279576C284.5675536320951,246.98060717294857,281.6519118097858,249.7201143822613,278.73626998747653,252.30944560295825C275.82062816516725,254.89877682365523,272.90498634285797,257.3379320557364,269.9893445205487,259.63929021568134C267.0737026982394,261.9406483756263,264.1580608759301,264.1042094634351,261.24241905362084,266.14022477654254C258.32677723131155,268.17624008965004,255.41113540900224,270.08470962805615,252.495493586693,271.8741344889035C249.57985176438373,273.66355934975076,246.66420994207442,275.3339395330392,243.7485681197651,276.89231709926787C240.83292629745586,278.45069466549654,237.9172844751466,279.8970696146655,235.0016426528373,281.23725079730434C232.08600083052798,282.57743197994324,229.1703590082187,283.8114193960521,226.25471718590939,284.9439642485156C223.33907536360013,286.07650910097914,220.42343354129085,287.1076113897974,217.5077917189816,288.0411009197297C214.59214989667228,288.97459044966206,211.676508074363,289.81046722070846,208.76086625205372,290.55174457083524C205.84522442974443,291.293021920962,202.92958260743515,291.9396998501691,200.01394078512587,292.4940546746171C197.09829896281659,293.048409499065,194.1826571405073,293.5104412187536,191.26701531819802,293.8817473006008C188.35137349588874,294.25305338244806,185.43573167357945,294.53363382645375,182.52008985127017,294.7244471194654C179.6044480289609,294.91526041247715,176.6888062066516,295.01630655449486,173.77316438434232,295.0279285933891C170.85752256203304,295.0395506322834,167.94188073972373,294.96174856805425,165.02623891741445,294.79425836544596C162.11059709510516,294.62676816283766,159.19495527279588,294.3695898218503,156.2793134504866,294.0218457960739C153.36367162817731,293.6741017702975,150.44802980586803,293.2357920597321,147.53238798355875,292.70540408634446C144.61674616124947,292.1750161129568,141.70110433894018,291.552549876747,138.7854625166309,290.83582011242606C135.86982069432162,290.1190903481052,132.95417887201233,289.3080970556733,130.03853704970305,288.39992663207653C127.12289522739377,287.4917562084798,124.20725340508449,286.4864086537181,121.2916115827752,285.38016555365294C118.37596976046592,284.2739224535878,115.46032793815664,283.066783808219,112.54468611584736,281.75412506205555C109.62904429353807,280.4414663158921,106.71340247122878,279.0232874689341,103.79776064891949,277.4939260419416C100.88211882661021,275.9645646149491,97.96647700430093,274.3240206079222,95.05083518199164,272.5654237082542C92.13519335968236,270.80682680858615,89.21955153737308,268.93017701627707,86.3039097150638,266.92717763743775C83.38826789275451,264.9241782585984,80.47262607044523,262.7948292932288,77.55698424813595,260.52912602571536C74.64134242582666,258.2634227582019,71.72570060351738,255.8613651885445,68.81005878120808,253.31087581159522C65.89441695889879,250.76038643464585,62.97877513658951,248.06146525040455,60.06313331428023,245.1994859995995C57.147491491970946,242.33750674879454,54.23184966966166,239.31246943142585,51.31620784735238,236.1065720329474C48.4005660250431,232.90067463446903,45.4849242027338,229.5139171548808,42.462439430794284,225.77685821762384C39.43995465885476,222.03979928036688,36.31062693728501,217.95243888544118,33.18129921571529,213.59791227289261"
       id="path8" /></clipPath><text
     xml:space="preserve"
     style="font-style:normal;font-weight:normal;font-size:43.3601px;line-height:1.25;font-family:sans-serif;fill:#000000;fill-opacity:1;stroke:none;stroke-width:1.084"
     x="-1452.7281"
     y="568.87238"
     id="text2"><tspan
       sodipodi:role="line"
       id="tspan2"
       style="stroke-width:1.084"
       x="-1452.7281"
       y="568.87238" /></text><path
     style="fill:#9bece1;fill-opacity:1;stroke-width:0.282352"
     d="m 185.28404,313.80373 -11.3571,-11.34702 -6.04947,6.06811 c -3.32701,3.33744 -6.35567,6.23076 -6.73027,6.42961 -0.37458,0.19881 -1.08199,0.36149 -1.57205,0.36149 -1.75729,0 -2.06148,-0.53568 -6.08543,-10.71745 -4.65979,-11.79048 -17.58545,-44.4178 -21.26975,-53.68961 -1.65676,-4.16952 -2.79635,-7.39111 -2.79635,-7.90568 0,-1.20769 1.3649,-2.58329 2.56321,-2.58329 0.52668,0 11.84816,4.35999 29.84499,11.49347 15.94799,6.3214 31.71992,12.56655 35.04878,13.87809 6.667,2.62694 7.43915,3.12299 7.43915,4.77986 0,0.49016 -0.16308,1.19761 -0.36161,1.57211 -0.19869,0.37456 -3.09205,3.4032 -6.42954,6.73036 l -6.06811,6.04937 11.34709,11.35717 11.34695,11.35718 v 1.24972 1.24973 l -7.50689,7.50691 -7.50688,7.5069 h -1.24974 -1.24973 z m 10.71326,-16.26954 -11.34729,-11.35744 v -1.24236 -1.24236 l 5.94697,-5.9658 5.94681,-5.96581 -2.73162,-1.07941 c -1.5025,-0.59369 -9.37016,-3.71303 -17.48395,-6.93188 -8.11377,-3.21886 -20.12053,-7.98156 -26.68189,-10.58376 -6.56117,-2.60222 -11.99226,-4.66854 -12.06898,-4.59181 -0.0767,0.0768 1.98975,5.5078 4.59223,12.06906 2.60246,6.56128 7.02729,17.71703 9.83311,24.79053 2.80566,7.07353 5.92267,14.94334 6.92678,17.4885 l 1.82552,4.62753 5.97043,-5.95145 5.97042,-5.95147 h 1.24291 1.24308 l 11.3536,11.34548 11.35376,11.34549 4.72769,-4.7228 4.72769,-4.7228 z M 114.89544,273.2077 c -0.96218,-0.38874 -1.61102,-1.4908 -1.61102,-2.73623 v -1.1501 l 5.22942,-5.25099 c 3.7269,-3.74235 5.46488,-5.31604 6.04948,-5.47744 2.39995,-0.66268 4.39686,1.78413 3.23815,3.96784 -0.4335,0.81688 -9.86856,10.21673 -10.65486,10.61504 -0.64083,0.32466 -1.49666,0.33676 -2.25117,0.032 z m -9.58799,-22.13902 c -1.33128,-1.07837 -1.49103,-2.89137 -0.36578,-4.15131 l 0.73553,-0.82355 7.69177,-0.0734 7.69177,-0.0734 0.87381,0.76728 c 0.48059,0.42199 0.93073,1.06489 1.00029,1.42867 0.19002,0.99372 -0.25611,2.2772 -0.99297,2.85682 -0.62869,0.49444 -0.97599,0.51561 -8.37621,0.51023 -6.93409,-0.004 -7.77513,-0.0499 -8.25821,-0.44131 z m 13.50343,-17.36565 -5.52646,-5.5264 v -1.21084 c 0,-1.00208 0.12648,-1.33795 0.7372,-1.94799 0.61007,-0.61004 0.94587,-0.73712 1.94798,-0.73712 h 1.2108 l 5.52645,5.5264 5.52629,5.5264 -0.13313,1.1859 c -0.17873,1.58558 -0.9908,2.39766 -2.57634,2.57639 l -1.186,0.13362 z m 30.02338,5.02625 c -1.30081,-0.89651 -1.71502,-2.12982 -1.15255,-3.43161 0.19104,-0.44216 2.66421,-3.10185 5.49566,-5.91045 l 5.14838,-5.10654 h 1.16452 c 1.99058,0 3.38777,1.75879 2.83729,3.57157 -0.21234,0.69892 -9.77706,10.42795 -10.76301,10.94774 -0.91144,0.4805 -1.9703,0.45308 -2.73029,-0.0707 z m -11.77012,-4.79122 c -0.30554,-0.0586 -0.90593,-0.5059 -1.33443,-0.99389 l -0.77897,-0.88726 0.0732,-7.69173 0.0732,-7.69176 0.82356,-0.73553 c 1.26004,-1.12526 3.07307,-0.96554 4.1514,0.36572 0.39139,0.48328 0.43616,1.32702 0.44132,8.31169 v 7.77378 l -0.73718,0.73712 c -0.40538,0.40542 -0.90678,0.73713 -1.11412,0.73713 -0.20752,0 -0.5282,0.0407 -0.7129,0.0906 -0.18472,0.0499 -0.58576,0.0427 -0.89111,-0.0167 z"
     id="path10" /><g
     id="g10"
     transform="matrix(0.96491733,0,0,0.96491733,7.5383725,-43.258979)"><text
       xml:space="preserve"
       style="font-style:normal;font-weight:normal;font-size:79.3945px;line-height:1.25;font-family:sans-serif;fill:#9bece1;fill-opacity:1;stroke:none;stroke-width:1.98488"
       x="10.720982"
       y="225.57611"
       id="text3149-3-0"><tspan
         sodipodi:role="line"
         id="tspan3147-0-4"
         style="font-style:normal;font-variant:normal;font-weight:normal;font-stretch:normal;font-family:Manjari;-inkscape-font-specification:Manjari;fill:#9bece1;fill-opacity:1;stroke-width:1.98488"
         x="10.720982"
         y="225.57611">GE </tspan></text><text
       xml:space="preserve"
       style="font-style:normal;font-weight:normal;font-size:79.3945px;line-height:1.25;font-family:sans-serif;fill:#9bece1;fill-opacity:1;stroke:none;stroke-width:1.98488"
       x="210.37439"
       y="225.26602"
       id="text3149-3-0-9"><tspan
         sodipodi:role="line"
         id="tspan3147-0-4-7"
         style="font-style:normal;font-variant:normal;font-weight:normal;font-stretch:normal;font-family:Manjari;-inkscape-font-specification:Manjari;fill:#9bece1;fill-opacity:1;stroke-width:1.98488"
         x="210.37439"
         y="225.26602">VIZ</tspan></text><text
       xml:space="preserve"
       style="font-style:normal;font-weight:normal;font-size:33.5245px;line-height:1.25;font-family:sans-serif;fill:#9bece1;fill-opacity:1;stroke:none;stroke-width:0.838113"
       x="147.63693"
       y="209.86389"
       id="text13773"><tspan
         sodipodi:role="line"
         id="tspan13771"
         style="font-style:normal;font-variant:normal;font-weight:normal;font-stretch:normal;font-family:Manjari;-inkscape-font-specification:Manjari;fill:#9bece1;fill-opacity:1;stroke-width:0.838113"
         x="147.63693"
         y="209.86389">JS</tspan></text><circle
       style="display:inline;fill:none;fill-opacity:1;stroke:#9bece1;stroke-width:4.54399;stroke-dasharray:none;stroke-opacity:1;stop-color:#000000"
       id="path19588-6"
       cx="164.74382"
       cy="198.9626"
       r="39.162224" /></g><rect
     fill="#ffffff"
     stroke="currentColor"
     stroke-width="1.29787"
     width="0"
     y="355.29092"
     height="0.51914859"
     id="rect7"
     x="-1283.9663"
     style="font-family:sans-serif;fill:#9bece1;fill-opacity:1" /></svg>
