<?xml version="1.0" encoding="UTF-8" standalone="no"?>
<svg
   width="346.41016151377545"
   viewBox="0,0,346.41016151377545,400"
   version="1.1"
   id="svg10"
   sodipodi:docname="rgeoviz.svg"
   xml:space="preserve"
   inkscape:version="1.3.2 (1:1.3.2+202311252150+091e20ef0f)"
   xmlns:inkscape="http://www.inkscape.org/namespaces/inkscape"
   xmlns:sodipodi="http://sodipodi.sourceforge.net/DTD/sodipodi-0.dtd"
   xmlns:xlink="http://www.w3.org/1999/xlink"
   xmlns="http://www.w3.org/2000/svg"
   xmlns:svg="http://www.w3.org/2000/svg"><sodipodi:namedview
     id="namedview10"
     pagecolor="#ffffff"
     bordercolor="#999999"
     borderopacity="1"
     inkscape:showpageshadow="0"
     inkscape:pageopacity="0"
     inkscape:pagecheckerboard="0"
     inkscape:deskcolor="#d1d1d1"
     inkscape:zoom="1.6850248"
     inkscape:cx="134.12266"
     inkscape:cy="194.95262"
     inkscape:window-width="1866"
     inkscape:window-height="1011"
     inkscape:window-x="54"
     inkscape:window-y="1112"
     inkscape:window-maximized="1"
     inkscape:current-layer="layer1"
     showguides="false" /><defs
     id="defs1"><clipPath
       clipPathUnits="userSpaceOnUse"
       id="clipPath24"><rect
         style="fill:none;stroke:#000000;stroke-width:0.999999;stroke-linecap:butt;stroke-linejoin:bevel;paint-order:stroke markers fill;stop-color:#000000"
         id="rect24"
         width="44.999748"
         height="77.937294"
         x="251.53429"
         y="222.73541" /></clipPath><inkscape:path-effect
       effect="fillet_chamfer"
       id="path-effect12"
       is_visible="true"
       lpeversion="1"
       nodesatellites_param="F,0,0,1,0,0,0,1 @ F,0,0,1,0,0,0,1 @ F,0,0,1,0,0,0,1 @ F,0,0,1,0,0,0,1"
       radius="0"
       unit="px"
       method="auto"
       mode="F"
       chamfer_steps="1"
       flexible="false"
       use_knot_distance="true"
       apply_no_radius="true"
       apply_with_radius="true"
       only_selected="false"
       hide_knots="false" /><pattern
       id="hatch"
       patternUnits="userSpaceOnUse"
       width="5"
       height="5"
       patternTransform="rotate(45)"><line
         x1="0"
         y1="5"
         x2="0"
         stroke="white"
         stroke-linejoin="butt"
         stroke-width="1.3333333333333333"
         stroke-opacity="0.25"
         id="line1" /></pattern><filter
       id="pencil1_qfukxvupiuehxtt"
       x="0"
       y="-0.00051729703"
       width="1"
       height="1.0005173"><feTurbulence
         baseFrequency="0.03"
         id="feTurbulence1" /><feDisplacementMap
         in="SourceGraphic"
         scale="5"
         id="feDisplacementMap1"
         xChannelSelector="A"
         yChannelSelector="A" /></filter><filter
       id="pencil2_qfukxvupiuehxtt"
       x="0"
       y="0"
       width="1"
       height="1"><feTurbulence
         baseFrequency="0.06"
         id="feTurbulence2" /><feDisplacementMap
         in="SourceGraphic"
         scale="7"
         id="feDisplacementMap2"
         xChannelSelector="A"
         yChannelSelector="A" /></filter><filter
       inkscape:menu="Morphology"
       inkscape:menu-tooltip="Converts blurred contour to posterized steps"
       inkscape:label="Posterized Blur"
       style="color-interpolation-filters:sRGB;"
       id="filter6"
       x="-0.19690692"
       y="-0.17052632"
       width="1.3938138"
       height="1.3410526"><feComposite
         in2="SourceGraphic"
         result="result1"
         k4="1"
         operator="arithmetic"
         id="feComposite4" /><feGaussianBlur
         in="SourceAlpha"
         result="blur"
         stdDeviation="17"
         id="feGaussianBlur4" /><feComposite
         in2="blur"
         in="blur"
         result="composite3"
         operator="in"
         id="feComposite5" /><feBlend
         in2="result1"
         result="fbSourceGraphic"
         mode="multiply"
         id="feBlend5" /><feComponentTransfer
         result="component1"
         in="fbSourceGraphic"
         id="feComponentTransfer5"><feFuncR
           tableValues="0 0.1 0.2 0.3 0.4 0.5 0.6 0.7 0.8 0.9 1 1"
           type="discrete"
           id="feFuncR5" /><feFuncG
           tableValues="0 0.1 0.2 0.3 0.4 0.5 0.6 0.7 0.8 0.9 1 1"
           type="discrete"
           id="feFuncG5" /><feFuncB
           tableValues="0 0.1 0.2 0.3 0.4 0.5 0.6 0.7 0.8 0.9 1 1"
           type="discrete"
           id="feFuncB5" /></feComponentTransfer><feColorMatrix
         result="colormatrix"
         values="1 0 0 0 0 0 1 0 0 0 0 0 1 0 0 -0.2125 -0.7154 -0.0721 1 0 "
         id="feColorMatrix5" /><feGaussianBlur
         stdDeviation="10"
         in="SourceGraphic"
         result="result2"
         id="feGaussianBlur5" /><feColorMatrix
         result="result3"
         values="1 0 0 0 0 0 1 0 0 0 0 0 1 0 0 0 0 0 50 0 "
         id="feColorMatrix6" /><feComponentTransfer
         in="result3"
         result="component1"
         id="feComponentTransfer6"><feFuncR
           type="discrete"
           tableValues="0 0.1 0.2 0.3 0.4 0.5 0.6 0.7 0.8 0.9 1 1"
           id="feFuncR6" /><feFuncG
           type="discrete"
           tableValues="0 0.1 0.2 0.3 0.4 0.5 0.6 0.7 0.8 0.9 1 1"
           id="feFuncG6" /><feFuncB
           type="discrete"
           tableValues="0 0.1 0.2 0.3 0.4 0.5 0.6 0.7 0.8 0.9 1 1"
           id="feFuncB6" /></feComponentTransfer><feComposite
         in2="colormatrix"
         operator="in"
         id="feComposite6" /></filter><filter
       inkscape:menu="Morphology"
       inkscape:menu-tooltip="Converts blurred contour to posterized steps"
       inkscape:label="Posterized Blur"
       style="color-interpolation-filters:sRGB"
       id="filter6-4"
       x="-0.23001345"
       y="-0.26559504"
       width="1.4600269"
       height="1.5311901"><feComposite
         in2="SourceGraphic"
         result="result1"
         k4="1"
         operator="arithmetic"
         id="feComposite4-3"
         k1="0"
         k2="0"
         k3="0" /><feGaussianBlur
         in="SourceAlpha"
         result="blur"
         stdDeviation="17"
         id="feGaussianBlur4-0" /><feComposite
         in2="blur"
         in="blur"
         result="composite3"
         operator="in"
         id="feComposite5-7" /><feBlend
         in2="result1"
         result="fbSourceGraphic"
         mode="multiply"
         id="feBlend5-8" /><feComponentTransfer
         result="component1"
         in="fbSourceGraphic"
         id="feComponentTransfer5-6"><feFuncR
           tableValues="0 0.1 0.2 0.3 0.4 0.5 0.6 0.7 0.8 0.9 1 1"
           type="discrete"
           id="feFuncR5-8" /><feFuncG
           tableValues="0 0.1 0.2 0.3 0.4 0.5 0.6 0.7 0.8 0.9 1 1"
           type="discrete"
           id="feFuncG5-8" /><feFuncB
           tableValues="0 0.1 0.2 0.3 0.4 0.5 0.6 0.7 0.8 0.9 1 1"
           type="discrete"
           id="feFuncB5-4" /></feComponentTransfer><feColorMatrix
         result="colormatrix"
         values="1 0 0 0 0 0 1 0 0 0 0 0 1 0 0 -0.2125 -0.7154 -0.0721 1 0 "
         id="feColorMatrix5-3" /><feGaussianBlur
         stdDeviation="10"
         in="SourceGraphic"
         result="result2"
         id="feGaussianBlur5-1" /><feColorMatrix
         result="result3"
         values="1 0 0 0 0 0 1 0 0 0 0 0 1 0 0 0 0 0 50 0 "
         id="feColorMatrix6-4" /><feComponentTransfer
         in="result3"
         result="component1"
         id="feComponentTransfer6-9"><feFuncR
           type="discrete"
           tableValues="0 0.1 0.2 0.3 0.4 0.5 0.6 0.7 0.8 0.9 1 1"
           id="feFuncR6-2" /><feFuncG
           type="discrete"
           tableValues="0 0.1 0.2 0.3 0.4 0.5 0.6 0.7 0.8 0.9 1 1"
           id="feFuncG6-0" /><feFuncB
           type="discrete"
           tableValues="0 0.1 0.2 0.3 0.4 0.5 0.6 0.7 0.8 0.9 1 1"
           id="feFuncB6-6" /></feComponentTransfer><feComposite
         in2="colormatrix"
         operator="in"
         id="feComposite6-8" /></filter><pattern
       inkscape:collect="always"
       xlink:href="#Hexagons"
       preserveAspectRatio="xMidYMid"
       id="pattern24"
       patternTransform="matrix(0.5,0,0,0.5,365.72364,-7.77166)"
       x="0"
       y="0" /><pattern
       patternUnits="userSpaceOnUse"
       width="100"
       height="87"
       preserveAspectRatio="xMidYMid"
       patternTransform="translate(1,1) scale(0.5,0.5)"
       style="fill:#ffffff"
       id="Hexagons"
       inkscape:label="Hexagons packing grid"
       inkscape:collect="always"
       inkscape:isstock="true"><path
         id="path27"
         style="stroke:none"
         d="M 23.246093,0 0,13.382812 V 44.689453 L 0.0839844,44.640625 24.033203,58.505859 24.001953,86.332031 22.841796,87 h 4.478516 L 26.068359,86.275391 26.099609,58.449219 50.083984,44.640625 74.033203,58.505859 74.001953,86.332031 72.841796,87 h 4.478516 L 76.068359,86.275391 76.099609,58.449219 100,44.689453 V 13.365234 L 76.919921,0 H 73.246093 L 50.015625,13.373047 26.919921,0 Z M 25.083984,1.25 49.033203,15.115234 49.001953,42.941406 25.017578,56.75 1.0019531,42.845703 l 0.033203,-27.75 z m 50,0 24.017576,13.904297 -0.0352,27.75 L 75.017578,56.75 51.068359,42.884766 51.099609,15.058594 Z" /></pattern><clipPath
       id="ocwwnhyhyolygph"><path
         d="M 270.692,0 300,21.294 329.308,42.587 v 0 0 0 l -11.195,34.454 -11.194,34.454 v 0 l 11.194,34.454 11.195,34.453 v 0 l 11.195,-34.453 11.195,-34.454 h 36.226 36.227 v 0 l 29.308,-21.294 29.309,-21.293 29.308,21.293 29.308,21.294 -11.195,34.453 -11.195,34.454 h -36.226 -36.227 v 0 l 29.308,21.294 29.308,21.293 v 0.001 h 36.227 36.227 l 11.194,34.453 11.195,34.454 -29.308,21.294 -29.308,21.293 -29.308,-21.293 -29.308,-21.294 h -10e-4 -36.226 -36.227 l -11.195,-34.454 -11.195,-34.454 v 0.001 l -11.194,34.453 -11.195,34.454 H 329.308 293.081 L 281.887,257.443 270.692,222.99 v 0 l -11.195,34.453 -11.195,34.454 v 0 l 11.195,34.454 11.195,34.454 -29.308,21.293 -29.308,21.294 -29.309,-21.294 -29.308,-21.293 11.195,-34.454 11.195,-34.454 v 0 L 164.654,257.443 153.459,222.99 v 0 l -11.194,34.453 -11.195,34.454 H 94.843 58.616 L 47.422,257.443 36.227,222.99 65.535,201.696 94.843,180.402 v 0 H 58.616 22.389 L 11.195,145.948 0,111.495 29.308,90.201 58.616,68.908 l 29.308,21.293 29.308,21.294 h 0.001 36.226 36.227 l 11.195,34.454 11.195,34.453 v 0 l 11.194,-34.453 11.195,-34.454 v 0 L 223.27,77.041 212.076,42.587 241.384,21.294 Z"
         id="path4-9" /></clipPath></defs><clipPath
     id="sphere"><path
       d="M33.18129921571529,213.59791227289261C30.051971494145572,209.24338566034407,26.922643772575885,204.6216928301727,25.35797991179101,202.31084641508698C23.793316051006133,200.00000000000125,23.79331605100607,200.00000000000114,23.79331605100599,200.00000000000102C23.793316051005917,200.0000000000009,23.79331605100583,200.00000000000077,23.79331605100577,200.00000000000065C23.793316051005707,200.00000000000057,23.79331605100567,200.00000000000048,23.793316051005636,200.00000000000045C23.793316051005604,200.00000000000037,23.793316051005576,200.00000000000037,23.793316051005558,200.00000000000034C23.793316051005537,200.0000000000003,23.79331605100553,200.0000000000003,23.793316051005508,200.00000000000026C23.79331605100549,200.00000000000023,23.793316051005462,200.0000000000002,23.793316051005444,200.00000000000014C23.793316051005423,200.0000000000001,23.793316051005416,200.0000000000001,23.79331605100541,200.00000000000009C23.793316051005405,200.00000000000009,23.793316051005405,200.00000000000009,23.7933160510054,200.00000000000009C23.793316051005394,200.00000000000009,23.793316051005387,200.00000000000003,23.79331605100538,200.00000000000003C23.793316051005377,200.00000000000003,23.793316051005377,200.00000000000003,23.793316051005377,200.00000000000003C23.793316051005377,200.00000000000003,23.793316051005377,200.00000000000003,23.793316051005377,200.00000000000003C23.793316051005377,200.00000000000003,23.793316051005377,200.00000000000003,23.793316051005377,200.00000000000003C23.793316051005377,200.00000000000003,23.793316051005377,200.00000000000003,23.793316051005377,200.00000000000003C23.793316051005377,200.00000000000003,23.793316051005377,200.00000000000003,23.793316051005373,200C23.793316051005366,200,23.79331605100536,200,23.793316051005352,200C23.79331605100535,200,23.79331605100535,200,23.79331605100535,200C23.79331605100535,200,23.79331605100535,200,23.79331605100535,200C23.79331605100535,200,23.79331605100535,200,23.79331605100535,200C23.79331605100535,200,23.79331605100535,200,23.79331605100535,200C23.79331605100535,200,23.79331605100535,200,23.79331605100535,200C23.79331605100535,200,23.79331605100535,200,23.79331605100535,200C23.79331605100535,200,23.79331605100535,200,23.79331605100535,200C23.79331605100535,200,23.79331605100535,200,23.79331605100535,200C23.79331605100535,200,23.79331605100535,200,23.79331605100535,200C23.79331605100535,200,23.79331605100535,200,23.79331605100535,200C23.79331605100535,200,23.79331605100535,200,23.79331605100535,200C23.79331605100535,200,23.79331605100535,200,23.79331605100535,200C23.79331605100535,200,23.79331605100535,200,23.79331605100535,200C23.79331605100535,200,23.79331605100535,200,23.79331605100535,200C23.79331605100535,200,23.79331605100535,200,23.79331605100535,200C23.79331605100535,200,23.79331605100535,200,23.79331605100535,200C23.79331605100535,200,23.79331605100535,200,23.79331605100535,200C23.79331605100535,200,23.79331605100535,200,23.79331605100535,200C23.79331605100535,200,23.79331605100535,200,23.79331605100535,200C23.79331605100535,200,23.79331605100535,200,23.79331605100535,200C23.79331605100535,200,23.79331605100535,200,23.79331605100535,200C23.79331605100535,200,23.79331605100535,200,23.79331605100535,200C23.79331605100535,200,23.79331605100535,200,23.79331605100535,200C23.79331605100535,200,23.79331605100535,200,23.79331605100535,200C23.79331605100535,200,23.79331605100535,200,23.79331605100535,200C23.79331605100535,200,23.79331605100535,200,23.79331605100535,200C23.79331605100535,200,23.79331605100535,200,23.79331605100535,200C23.79331605100535,200,23.79331605100535,200,23.79331605100535,200C23.79331605100535,200,23.79331605100535,200,23.79331605100535,200C23.79331605100535,200,23.79331605100535,200,23.79331605100535,200C23.79331605100535,200,23.79331605100535,200,23.79331605100535,200C23.79331605100535,200,23.79331605100535,200,23.79331605100535,200C23.79331605100535,200,23.79331605100535,200,23.79331605100535,200C23.79331605100535,200,23.79331605100535,200,23.79331605100535,200C23.79331605100535,200,23.79331605100535,200,23.79331605100535,200C23.79331605100535,200,23.79331605100535,200,23.79331605100535,200C23.79331605100535,200,23.79331605100535,200,23.79331605100535,200C23.79331605100535,200,23.79331605100535,200,23.79331605100535,200C23.79331605100535,200,23.79331605100535,200,23.79331605100535,200C23.79331605100535,200,23.79331605100535,200,23.79331605100535,200C23.79331605100535,200,23.79331605100535,200,23.79331605100535,200C23.79331605100535,200,23.79331605100535,200,23.79331605100535,200C23.79331605100535,200,23.79331605100535,200,23.79331605100535,200C23.79331605100535,200,23.79331605100535,200,23.79331605100535,200C23.79331605100535,200,23.79331605100535,200,23.79331605100535,200C23.79331605100535,200,23.79331605100535,200,23.79331605100535,200C23.79331605100535,200,23.79331605100535,200,23.79331605100535,200C23.79331605100535,200,23.79331605100535,200,23.79331605100535,200C23.79331605100535,200,23.79331605100535,200,23.79331605100535,200C23.79331605100535,200,23.79331605100535,200,23.79331605100535,200C23.79331605100535,200,23.79331605100535,200,23.79331605100535,200C23.79331605100535,200,23.79331605100535,200,23.79331605100535,200C23.79331605100535,200,23.79331605100535,200,23.79331605100535,200C23.79331605100535,200,23.79331605100535,200,23.79331605100535,200C23.79331605100535,200,23.79331605100535,200,23.79331605100535,200C23.79331605100535,200,23.79331605100535,200,23.79331605100535,200C23.79331605100535,200,23.79331605100535,200,23.79331605100535,200C23.79331605100535,200,23.79331605100535,200,23.79331605100535,200C23.79331605100535,200,23.79331605100535,200,23.79331605100535,200C23.79331605100535,200,23.79331605100535,200,23.79331605100535,200C23.79331605100535,200,23.79331605100535,200,23.79331605100535,200C23.79331605100535,200,23.79331605100535,200,23.79331605100535,200C23.79331605100535,200,23.79331605100535,200,23.79331605100535,200C23.79331605100535,200,23.79331605100535,200,23.79331605100535,200C23.79331605100535,200,23.79331605100535,200,23.79331605100535,200C23.79331605100535,200,23.79331605100535,200,23.79331605100535,200C23.79331605100535,200,23.79331605100535,200,23.79331605100535,200C23.79331605100535,200,23.79331605100535,200,23.793316051005352,200C23.79331605100536,200,23.793316051005366,200,23.793316051005373,199.99999999999997C23.793316051005377,199.99999999999997,23.793316051005377,199.99999999999997,23.793316051005377,199.99999999999997C23.793316051005377,199.99999999999997,23.793316051005377,199.99999999999997,23.793316051005377,199.99999999999997C23.793316051005377,199.99999999999997,23.793316051005377,199.99999999999997,23.793316051005377,199.99999999999997C23.793316051005377,199.99999999999997,23.793316051005377,199.99999999999997,23.793316051005377,199.99999999999997C23.793316051005377,199.99999999999997,23.793316051005377,199.99999999999997,23.79331605100538,199.99999999999997C23.793316051005387,199.99999999999997,23.793316051005394,199.99999999999991,23.7933160510054,199.99999999999991C23.793316051005405,199.99999999999991,23.793316051005405,199.99999999999991,23.79331605100541,199.9999999999999C23.793316051005416,199.9999999999999,23.793316051005423,199.9999999999999,23.793316051005444,199.99999999999986C23.793316051005462,199.9999999999998,23.79331605100549,199.99999999999977,23.820781409674293,199.95690505592634C23.848246768343092,199.91381011185288,23.90317748568067,199.82762022370608,25.486157100910663,197.49137733984995C27.06913671614066,195.15513445599382,30.180165229263082,190.56883857642836,33.291193742385495,186.2461518257518C36.402222255507915,181.9234650750753,39.51325076863032,177.8643874532876,42.624279281752735,174.03595098194296C45.73530779487515,170.20751451059832,48.846336307997554,166.60971918969662,51.95736482111997,163.21626018814922C55.06839333424239,159.82280118660182,58.1794218473648,156.63367850440872,61.290450360487206,153.62770445528687C64.40147887360963,150.62173040616497,67.51250738673205,147.79890499011435,70.62353589985446,145.1420345652992C73.73456441297687,142.48516414048404,76.84559292609929,139.9942487069044,79.95662143922169,137.65526055040297C83.0676499523441,135.31627239390158,86.17867846546653,133.12921151447844,89.28970697858894,131.08259773742284C92.40073549171136,129.03598396036725,95.51176400483376,127.12981728567915,98.62279251795617,125.3546985074048C101.73382103107859,123.57957972913043,104.844849544201,121.93550884726979,107.9558780573234,120.41481287571385C111.06690657044582,118.89411690415791,114.17793508356823,117.4967958429067,117.28896359669064,116.21663198383645C120.39999210981307,114.93646812476617,123.51102062293546,113.77346146787686,126.6220491360579,112.72264260531615C129.7330776491803,111.67182374275548,132.84410616230272,110.73319267452347,135.95513467542514,109.90287112129062C139.06616318854756,109.0725495680578,142.17719170166995,108.35053752982417,145.28822021479237,107.73393037040877C148.3992487279148,107.11732321099343,151.5102772410372,106.60612093039633,154.6213057541596,106.19830755642259C157.73233426728203,105.79049418244885,160.84336278040442,105.48606971509848,163.95439129352684,105.28384939795927C167.06541980664926,105.08162908082011,170.17644831977168,104.9816129138921,173.28747683289407,104.98341356995024C176.3985053460165,104.9852142260084,179.50953385913894,105.08883170505267,182.62056237226133,105.29466717958492C185.73159088538375,105.50050265411716,188.84261939850614,105.80855612413735,191.95364791162856,106.22002663564065C195.06467642475096,106.63149714714393,198.1757049378734,107.14638470013033,201.28673345099583,107.76672035412747C204.39776196411822,108.38705600812462,207.50879047724064,109.11283976313253,210.6198189903631,109.94699259338455C213.73084750348548,110.78114542363659,216.84187601660787,111.72366732913271,219.9529045297303,112.77845470273076C223.0639330428527,113.83324207632882,226.1749615559751,115.00029491802877,229.2859900690975,116.28460315533493C232.39701858221994,117.56891139264111,235.50804709534236,118.97047502555351,238.61907560846475,120.4955354691469C241.73010412158717,122.02059591274026,244.84113263470962,123.66915316701467,247.95216114783202,125.44890769762821C251.0631896609544,127.22866222824176,254.17421817407683,129.13961403519446,257.2852466871992,131.1911961507269C260.39627520032167,133.24277826625934,263.50730371344406,135.43499069037154,266.61833222656645,137.7793541398465C269.7293607396889,140.12371758932147,272.8403892528113,142.6202320641592,275.9514177659337,145.28297528269752C279.06244627905613,147.9457185012358,282.1734747921785,150.77469046347466,285.284503305301,153.78714737719773C288.3955318184234,156.7996042909208,291.5065603315458,159.99554615612809,294.6175888446682,163.39624028802993C297.7286173577906,166.79693441993177,300.83964587091305,170.4023808185282,303.95067438403544,174.23898705986576C307.0617028971579,178.07559330120333,310.1727314102803,182.14335938528208,313.28375992340267,186.4753881824279C316.3947884365251,190.8074169795738,319.5058169496475,195.40370848978674,321.0613312062087,197.7018542448932C322.6168454627699,199.9999999999997,322.6168454627699,199.9999999999997,322.61684546276996,199.99999999999974C322.6168454627699,199.9999999999997,322.6168454627699,199.9999999999997,322.61684546276996,199.99999999999974C322.6168454627699,199.9999999999997,322.6168454627699,199.9999999999997,322.61684546276996,199.99999999999974C322.6168454627699,199.9999999999997,322.6168454627699,199.9999999999997,322.61684546276996,199.99999999999974C322.6168454627699,199.9999999999997,322.6168454627699,199.9999999999997,322.61684546276996,199.99999999999974C322.6168454627699,199.9999999999997,322.6168454627699,199.9999999999997,322.61684546276996,199.99999999999974C322.6168454627699,199.9999999999997,322.6168454627699,199.9999999999997,322.61684546276996,199.99999999999974C322.6168454627699,199.9999999999997,322.6168454627699,199.9999999999997,322.61684546276996,199.99999999999974C322.61684546276996,199.99999999999977,322.61684546276996,199.9999999999998,322.61684546277,199.99999999999986C322.61684546277,199.9999999999999,322.61684546277,199.9999999999999,322.61684546277,199.99999999999991C322.61684546277,199.99999999999991,322.61684546277,199.99999999999991,322.61684546277,199.99999999999991C322.61684546277,199.99999999999991,322.6168454627701,199.99999999999997,322.6168454627701,199.99999999999997C322.6168454627701,199.99999999999997,322.6168454627701,199.99999999999997,322.6168454627701,199.99999999999997C322.6168454627701,199.99999999999997,322.6168454627701,199.99999999999997,322.6168454627701,199.99999999999997C322.6168454627701,199.99999999999997,322.6168454627701,199.99999999999997,322.6168454627701,199.99999999999997C322.6168454627701,199.99999999999997,322.6168454627701,199.99999999999997,322.6168454627701,199.99999999999997C322.6168454627701,199.99999999999997,322.6168454627701,199.99999999999997,322.6168454627701,200C322.6168454627701,200,322.6168454627701,200,322.6168454627701,200C322.61684546277013,200,322.61684546277013,200,322.6168454627701,200C322.61684546277013,200,322.61684546277013,200,322.6168454627701,200C322.61684546277013,200,322.61684546277013,200,322.6168454627701,200C322.61684546277013,200,322.61684546277013,200,322.6168454627701,200C322.61684546277013,200,322.61684546277013,200,322.6168454627701,200C322.61684546277013,200,322.61684546277013,200,322.6168454627701,200C322.61684546277013,200,322.61684546277013,200,322.6168454627701,200C322.61684546277013,200,322.61684546277013,200,322.6168454627701,200C322.61684546277013,200,322.61684546277013,200,322.6168454627701,200C322.61684546277013,200,322.61684546277013,200,322.6168454627701,200C322.61684546277013,200,322.61684546277013,200,322.6168454627701,200C322.61684546277013,200,322.61684546277013,200,322.6168454627701,200C322.61684546277013,200,322.61684546277013,200,322.6168454627701,200C322.61684546277013,200,322.61684546277013,200,322.6168454627701,200C322.61684546277013,200,322.61684546277013,200,322.6168454627701,200C322.61684546277013,200,322.61684546277013,200,322.6168454627701,200C322.61684546277013,200,322.61684546277013,200,322.6168454627701,200C322.61684546277013,200,322.61684546277013,200,322.6168454627701,200C322.61684546277013,200,322.61684546277013,200,322.6168454627701,200C322.61684546277013,200,322.61684546277013,200,322.6168454627701,200C322.61684546277013,200,322.61684546277013,200,322.6168454627701,200C322.61684546277013,200,322.61684546277013,200,322.6168454627701,200C322.61684546277013,200,322.61684546277013,200,322.6168454627701,200C322.61684546277013,200,322.61684546277013,200,322.6168454627701,200C322.61684546277013,200,322.61684546277013,200,322.6168454627701,200C322.61684546277013,200,322.61684546277013,200,322.6168454627701,200C322.61684546277013,200,322.61684546277013,200,322.6168454627701,200C322.61684546277013,200,322.61684546277013,200,322.6168454627701,200C322.61684546277013,200,322.61684546277013,200,322.6168454627701,200C322.61684546277013,200,322.61684546277013,200,322.6168454627701,200C322.61684546277013,200,322.61684546277013,200,322.6168454627701,200C322.61684546277013,200,322.61684546277013,200,322.6168454627701,200C322.61684546277013,200,322.61684546277013,200,322.6168454627701,200C322.61684546277013,200,322.61684546277013,200,322.6168454627701,200C322.61684546277013,200,322.61684546277013,200,322.6168454627701,200C322.61684546277013,200,322.61684546277013,200,322.6168454627701,200C322.61684546277013,200,322.61684546277013,200,322.6168454627701,200C322.61684546277013,200,322.61684546277013,200,322.6168454627701,200C322.61684546277013,200,322.61684546277013,200,322.6168454627701,200C322.61684546277013,200,322.61684546277013,200,322.6168454627701,200C322.61684546277013,200,322.61684546277013,200,322.6168454627701,200C322.61684546277013,200,322.61684546277013,200,322.6168454627701,200C322.61684546277013,200,322.61684546277013,200,322.6168454627701,200C322.61684546277013,200,322.61684546277013,200,322.6168454627701,200C322.61684546277013,200,322.61684546277013,200,322.6168454627701,200C322.61684546277013,200,322.61684546277013,200,322.6168454627701,200C322.61684546277013,200,322.61684546277013,200,322.6168454627701,200C322.61684546277013,200,322.61684546277013,200,322.6168454627701,200C322.61684546277013,200,322.61684546277013,200,322.6168454627701,200C322.61684546277013,200,322.61684546277013,200,322.6168454627701,200C322.61684546277013,200,322.61684546277013,200,322.6168454627701,200C322.61684546277013,200,322.61684546277013,200,322.6168454627701,200C322.61684546277013,200,322.61684546277013,200,322.6168454627701,200C322.61684546277013,200,322.61684546277013,200,322.6168454627701,200C322.61684546277013,200,322.61684546277013,200,322.6168454627701,200C322.61684546277013,200,322.61684546277013,200,322.6168454627701,200C322.61684546277013,200,322.61684546277013,200,322.6168454627701,200C322.61684546277013,200,322.61684546277013,200,322.6168454627701,200C322.61684546277013,200,322.61684546277013,200,322.6168454627701,200C322.61684546277013,200,322.61684546277013,200,322.6168454627701,200C322.61684546277013,200,322.61684546277013,200,322.6168454627701,200C322.61684546277013,200,322.61684546277013,200,322.6168454627701,200C322.61684546277013,200,322.61684546277013,200,322.6168454627701,200C322.61684546277013,200,322.61684546277013,200,322.6168454627701,200C322.61684546277013,200,322.61684546277013,200,322.6168454627701,200C322.61684546277013,200,322.61684546277013,200,322.6168454627701,200C322.61684546277013,200,322.61684546277013,200,322.6168454627701,200C322.61684546277013,200,322.61684546277013,200,322.6168454627701,200C322.6168454627701,200,322.6168454627701,200,322.6168454627701,200.00000000000003C322.6168454627701,200.00000000000003,322.6168454627701,200.00000000000003,322.6168454627701,200.00000000000003C322.6168454627701,200.00000000000003,322.6168454627701,200.00000000000003,322.6168454627701,200.00000000000003C322.6168454627701,200.00000000000003,322.6168454627701,200.00000000000003,322.6168454627701,200.00000000000003C322.6168454627701,200.00000000000003,322.6168454627701,200.00000000000003,322.6168454627701,200.00000000000003C322.6168454627701,200.00000000000003,322.6168454627701,200.00000000000003,322.6168454627701,200.00000000000003C322.6168454627701,200.00000000000003,322.61684546277,200.00000000000009,322.61684546277,200.00000000000009C322.61684546277,200.00000000000009,322.61684546277,200.00000000000009,322.61684546277,200.0000000000001C322.61684546277,200.0000000000001,322.61684546277,200.0000000000001,322.61684546277,200.00000000000014C322.61684546276996,200.0000000000002,322.61684546276996,200.00000000000023,322.5925207726609,200.03817184045047C322.5681960825519,200.07634368090075,322.5195467023338,200.15268736180118,321.0374011010702,202.34866858351737C319.5552554998065,204.54464980523366,316.63961367749727,208.8602685677657,313.723971855188,212.94230894550142C310.8083300328787,217.02434932323717,307.89268821056936,220.87281131617658,304.9770463882601,224.5154175995698C302.0614045659508,228.15802388296302,299.1457627436415,231.59477445681003,296.23012092133223,234.84807889923002C293.31447909902295,238.10138334165,290.39883727671366,241.17124165264295,287.4831954544044,244.07592441279576C284.5675536320951,246.98060717294857,281.6519118097858,249.7201143822613,278.73626998747653,252.30944560295825C275.82062816516725,254.89877682365523,272.90498634285797,257.3379320557364,269.9893445205487,259.63929021568134C267.0737026982394,261.9406483756263,264.1580608759301,264.1042094634351,261.24241905362084,266.14022477654254C258.32677723131155,268.17624008965004,255.41113540900224,270.08470962805615,252.495493586693,271.8741344889035C249.57985176438373,273.66355934975076,246.66420994207442,275.3339395330392,243.7485681197651,276.89231709926787C240.83292629745586,278.45069466549654,237.9172844751466,279.8970696146655,235.0016426528373,281.23725079730434C232.08600083052798,282.57743197994324,229.1703590082187,283.8114193960521,226.25471718590939,284.9439642485156C223.33907536360013,286.07650910097914,220.42343354129085,287.1076113897974,217.5077917189816,288.0411009197297C214.59214989667228,288.97459044966206,211.676508074363,289.81046722070846,208.76086625205372,290.55174457083524C205.84522442974443,291.293021920962,202.92958260743515,291.9396998501691,200.01394078512587,292.4940546746171C197.09829896281659,293.048409499065,194.1826571405073,293.5104412187536,191.26701531819802,293.8817473006008C188.35137349588874,294.25305338244806,185.43573167357945,294.53363382645375,182.52008985127017,294.7244471194654C179.6044480289609,294.91526041247715,176.6888062066516,295.01630655449486,173.77316438434232,295.0279285933891C170.85752256203304,295.0395506322834,167.94188073972373,294.96174856805425,165.02623891741445,294.79425836544596C162.11059709510516,294.62676816283766,159.19495527279588,294.3695898218503,156.2793134504866,294.0218457960739C153.36367162817731,293.6741017702975,150.44802980586803,293.2357920597321,147.53238798355875,292.70540408634446C144.61674616124947,292.1750161129568,141.70110433894018,291.552549876747,138.7854625166309,290.83582011242606C135.86982069432162,290.1190903481052,132.95417887201233,289.3080970556733,130.03853704970305,288.39992663207653C127.12289522739377,287.4917562084798,124.20725340508449,286.4864086537181,121.2916115827752,285.38016555365294C118.37596976046592,284.2739224535878,115.46032793815664,283.066783808219,112.54468611584736,281.75412506205555C109.62904429353807,280.4414663158921,106.71340247122878,279.0232874689341,103.79776064891949,277.4939260419416C100.88211882661021,275.9645646149491,97.96647700430093,274.3240206079222,95.05083518199164,272.5654237082542C92.13519335968236,270.80682680858615,89.21955153737308,268.93017701627707,86.3039097150638,266.92717763743775C83.38826789275451,264.9241782585984,80.47262607044523,262.7948292932288,77.55698424813595,260.52912602571536C74.64134242582666,258.2634227582019,71.72570060351738,255.8613651885445,68.81005878120808,253.31087581159522C65.89441695889879,250.76038643464585,62.97877513658951,248.06146525040455,60.06313331428023,245.1994859995995C57.147491491970946,242.33750674879454,54.23184966966166,239.31246943142585,51.31620784735238,236.1065720329474C48.4005660250431,232.90067463446903,45.4849242027338,229.5139171548808,42.462439430794284,225.77685821762384C39.43995465885476,222.03979928036688,36.31062693728501,217.95243888544118,33.18129921571529,213.59791227289261"
       id="path8" /></clipPath><text
     xml:space="preserve"
     style="font-style:normal;font-weight:normal;font-size:43.3601px;line-height:1.25;font-family:sans-serif;fill:#000000;fill-opacity:1;stroke:none;stroke-width:1.084"
     x="-1452.7281"
     y="568.87238"
     id="text2"><tspan
       sodipodi:role="line"
       id="tspan2"
       style="stroke-width:1.084"
       x="-1452.7281"
       y="568.87238" /></text><rect
     fill="#ffffff"
     stroke="currentColor"
     stroke-width="1.29787"
     width="0"
     y="355.29092"
     height="0.51914859"
     id="rect7"
     x="-1283.9663"
     style="font-family:sans-serif;fill:#9bece1;fill-opacity:1" /><g
     inkscape:groupmode="layer"
     id="layer3"
     inkscape:label="fond clair"
     style="display:inline"><path
       d="M 346.41,100 V 300 L 173.205,400 0,300 V 100 L 173.205,0 Z"
       stroke="none"
       fill="#c42727"
       id="path1"
       style="fill:#9aece1;fill-opacity:0.427451" /></g><g
     inkscape:groupmode="layer"
     id="layer2"
     inkscape:label="fond"
     style="display:inline"><path
       d="M 337.74975,105 V 295 L 173.205,390 8.660254,295 V 105 L 173.205,10 Z"
       stroke="none"
       fill="#e63e32"
       id="path2"
       style="fill:#02886f;fill-opacity:1;stroke-width:0.95" /><path
       d="m -36.690316,222.31468 v 190 l -164.544754,95 -164.54474,-95 v -190 l 164.54474,-95 z"
       stroke="none"
       fill="#e63e32"
       id="path2-7"
       style="display:inline;fill:#02886f;fill-opacity:1;stroke-width:0.95;filter:url(#filter6)"
       transform="matrix(0.85606653,0,0,0.85606653,345.50852,-66.860242)" /></g><g
     inkscape:groupmode="layer"
     id="layer4"
     inkscape:label="hex"
     style="display:inline"><path
       d="M 337.74983,105 V 295 L 173.20508,390 8.6603281,295 V 105 L 173.20508,10 Z"
       stroke="none"
       fill="#e63e32"
       id="path2-9"
       style="display:inline;opacity:0.168454;fill:url(#pattern24);fill-opacity:1;stroke:none;stroke-width:0.95" /></g><g
     inkscape:groupmode="layer"
     id="layer5"
     inkscape:label="gobe"
     style="display:inline"><text
       xml:space="preserve"
       style="font-style:normal;font-weight:normal;font-size:12.9171px;line-height:1.25;font-family:sans-serif;fill:#9bece1;fill-opacity:1;stroke:none;stroke-width:0.322926"
       x="134.42224"
       y="320.62634"
       id="text1"><tspan
         sodipodi:role="line"
         id="tspan1"
         x="134.42224"
         y="320.62634"
         style="font-style:normal;font-variant:normal;font-weight:normal;font-stretch:normal;font-family:'Andale Mono';-inkscape-font-specification:'Andale Mono';stroke-width:0.322926">Htmlwidget</tspan></text></g><g
     inkscape:groupmode="layer"
     id="layer1"
     inkscape:label="Layer 1"
     style="display:inline"><path
       style="fill:#9bece1;fill-opacity:1;stroke-width:0.145766"
       d="m 149.41906,210.48472 5.85799,-5.8632 -3.13271,-3.12309 c -1.72298,-1.7176 -3.21668,-3.28117 -3.31933,-3.47456 -0.1027,-0.19338 -0.18663,-0.55858 -0.18663,-0.81158 0,-0.90722 0.27655,-1.06427 5.53299,-3.14166 6.08692,-2.40565 22.93104,-9.07863 27.71769,-10.98069 2.15256,-0.85531 3.81573,-1.44364 4.08139,-1.44364 0.62347,0 1.33364,0.70465 1.33364,1.32328 0,0.27191 -2.25088,6.11671 -5.9336,15.40774 -3.26347,8.23328 -6.48759,16.37566 -7.16468,18.09422 -1.35618,3.44189 -1.61227,3.84051 -2.46764,3.84051 -0.25306,0 -0.61828,-0.0841 -0.81162,-0.18667 -0.19336,-0.10258 -1.75694,-1.5963 -3.4746,-3.31931 l -3.12305,-3.13271 -5.86323,5.85804 -5.86323,5.85795 h -0.64519 -0.64518 l -3.8755,-3.8755 -3.87551,-3.87549 v -0.64518 -0.6452 z m 8.39929,5.53081 5.86338,-5.85814 h 0.64137 0.64139 l 3.07989,3.07017 3.0799,3.0701 0.55725,-1.41022 c 0.3065,-0.77568 1.91688,-4.83743 3.57865,-9.02624 1.66176,-4.18881 4.12054,-10.3874 5.46394,-13.77475 1.34342,-3.38726 2.41019,-6.19111 2.37058,-6.23071 -0.0396,-0.0395 -2.84347,1.02723 -6.23077,2.37078 -3.38731,1.34354 -9.14656,3.62789 -12.79831,5.07642 -3.65177,1.44845 -7.71463,3.05764 -9.02858,3.57601 l -2.38901,0.94244 3.07249,3.08229 3.07249,3.08227 v 0.64167 0.64175 l -5.85719,5.86138 -5.85721,5.86148 2.43818,2.44071 2.43819,2.44071 z m 12.55876,-41.86952 c 0.20069,-0.49673 0.76964,-0.8317 1.4126,-0.8317 h 0.59374 l 2.71088,2.69974 c 1.93201,1.92404 2.74445,2.82128 2.82777,3.12309 0.34212,1.23899 -0.92107,2.26991 -2.04843,1.67172 -0.42172,-0.2238 -5.27447,-5.09472 -5.4801,-5.50066 -0.16762,-0.33084 -0.17387,-0.77266 -0.0165,-1.16219 z m 11.42946,-4.94988 c 0.5567,-0.68727 1.49269,-0.76975 2.14314,-0.18883 l 0.42517,0.37972 0.0379,3.97093 0.0379,3.97095 -0.39613,0.4511 c -0.21785,0.24813 -0.54974,0.48051 -0.73755,0.51641 -0.51302,0.0981 -1.17562,-0.13221 -1.47486,-0.51262 -0.25527,-0.32457 -0.26619,-0.50386 -0.26342,-4.32429 0.002,-3.57979 0.0257,-4.01397 0.22783,-4.26337 z m 8.96515,6.97126 2.85305,-2.85308 h 0.62511 c 0.51734,0 0.69073,0.0653 1.00566,0.38059 0.31494,0.31495 0.38055,0.48832 0.38055,1.00565 v 0.62509 l -2.85305,2.85307 -2.85305,2.85301 -0.61222,-0.0688 c -0.81858,-0.0923 -1.23782,-0.5115 -1.3301,-1.33005 l -0.069,-0.61228 z m -2.59484,15.49982 c 0.46283,-0.67155 1.09953,-0.88539 1.77159,-0.59501 0.22827,0.0986 1.60136,1.37542 3.05132,2.83718 l 2.6363,2.65789 v 0.6012 c 0,1.02765 -0.90799,1.74896 -1.84385,1.46477 -0.36082,-0.10966 -5.38352,-5.04749 -5.65187,-5.55649 -0.24806,-0.47054 -0.2339,-1.01719 0.0364,-1.40954 z m 2.47351,-6.07643 c 0.0303,-0.15773 0.26117,-0.46769 0.5131,-0.6889 l 0.45805,-0.40215 3.97093,0.0378 3.97094,0.0378 0.37972,0.42518 c 0.58092,0.6505 0.49846,1.58649 -0.18881,2.14319 -0.24949,0.20206 -0.68508,0.22517 -4.29098,0.22783 h -4.01327 l -0.38055,-0.38056 c -0.20931,-0.20929 -0.38055,-0.46815 -0.38055,-0.57519 0,-0.10711 -0.021,-0.27268 -0.0468,-0.36804 -0.0257,-0.0954 -0.022,-0.3024 0.009,-0.46003 z"
       id="path10" /><text
       xml:space="preserve"
       style="font-style:normal;font-weight:normal;font-size:54.7368px;line-height:1.25;font-family:sans-serif;fill:#9bece1;fill-opacity:1;stroke:none;stroke-width:1.36843"
       x="44.511383"
       y="218.34805"
       id="text3149-3-0"><tspan
         sodipodi:role="line"
         id="tspan3147-0-4"
         style="font-style:normal;font-variant:normal;font-weight:normal;font-stretch:normal;font-family:Manjari;-inkscape-font-specification:Manjari;fill:#9bece1;fill-opacity:1;stroke-width:1.36843"
         x="44.511383"
         y="218.34805">GE </tspan></text><text
       xml:space="preserve"
       style="font-style:normal;font-weight:normal;font-size:54.7368px;line-height:1.25;font-family:sans-serif;fill:#9bece1;fill-opacity:1;stroke:none;stroke-width:1.36843"
       x="220.17648"
       y="218.13423"
       id="text3149-3-0-9"><tspan
         sodipodi:role="line"
         id="tspan3147-0-4-7"
         style="font-style:normal;font-variant:normal;font-weight:normal;font-stretch:normal;font-family:Manjari;-inkscape-font-specification:Manjari;fill:#9bece1;fill-opacity:1;stroke-width:1.36843"
         x="220.17648"
         y="218.13423">VIZ</tspan></text><circle
       style="display:inline;fill:none;fill-opacity:1;stroke:#9bece1;stroke-width:5.18726;stroke-dasharray:none;stroke-opacity:1;stop-color:#000000"
       id="path19588-6"
       cx="170.16042"
       cy="200"
       r="44.711933" /><path
       d="m 309.86021,278.85448 c -11.38798,19.72424 -113.87748,78.89695 -136.65345,78.89695 -22.77518,0 -125.265469,-59.17271 -136.653453,-78.89695 -11.387985,-19.72424 -11.387985,-138.06966 0,-157.79389 11.387984,-19.72424 113.878273,-78.896953 136.653453,-78.896953 22.77597,0 125.26547,59.172713 136.65345,78.896953 11.38799,19.72423 11.38799,138.06965 0,157.79389"
       stroke="#ffffff"
       fill="none"
       stroke-width="0.788969"
       stroke-dasharray="5"
       id="path4" /><path
       style="opacity:0.6;fill:#9bece1;fill-opacity:1;stroke:none;stroke-width:0.246702"
       d="m 145.18943,131.2584 -0.23192,-0.24421 v -5.82393 -5.82394 h 3.07713 c 3.87078,0 5.769,-0.38978 8.59465,-1.76487 l 2.24013,-1.09012 1.83603,-1.96272 1.83603,-1.96272 0.91871,-1.9441 c 0.50527,-1.06925 1.0883,-2.77791 1.29561,-3.79701 l 0.37691,-1.8529 -0.18885,-2.03212 C 164.57225,98.9616 162.94688,95.6286 160.01772,92.85834 L 158.39679,91.32533 156.393,90.37381 154.38919,89.4223 152.5543,89.08715 C 151.54509,88.90282 149.42295,88.752 147.83845,88.752 h -2.88094 v -6.07817 -6.07817 l 4.56122,0.20004 4.56122,0.20002 2.16463,0.57386 c 2.79884,0.74198 5.60275,1.88704 7.80474,3.18726 l 1.75683,1.03737 3.10666,3.09235 3.10669,3.09235 1.29716,2.31927 c 0.71344,1.2756 1.71695,3.57878 2.23001,5.11819 l 0.93286,2.79892 0.33492,2.92194 0.3349,2.92193 -0.20378,2.16466 c -0.44162,4.69115 -1.9222,8.94129 -4.44369,12.75594 l -1.78856,2.70583 -2.13197,2.029 c -3.69596,3.51743 -7.36015,5.55305 -12.23715,6.79826 l -2.51666,0.64256 -4.2031,0.1736 -4.20308,0.17361 z m 22.65149,-0.464 c 0.42519,-0.35331 1.70922,-1.41479 2.8534,-2.35882 2.15472,-1.77782 4.62142,-4.65036 6.37532,-7.42427 l 1.01293,-1.60199 4.75323,-0.0988 4.75325,-0.0988 0.85276,-0.63757 c 0.46903,-0.35067 1.12944,-1.00815 1.4676,-1.46108 l 0.61483,-0.82348 0.0227,-1.53073 0.0227,-1.53073 -0.64689,-0.87365 c -0.3558,-0.48051 -1.10696,-1.18675 -1.66921,-1.56943 l -1.02234,-0.69577 -2.81469,-1.2e-4 -2.8147,-1.1e-4 v -6.03007 -6.03006 l 2.79854,7e-5 2.79854,8e-5 1.29991,-0.84289 1.29992,-0.84288 0.50259,-1.31599 0.50258,-1.316 -0.19699,-0.98496 c -0.10836,-0.54172 -0.56209,-1.4636 -1.0083,-2.04861 l -0.81128,-1.06366 -1.03163,-0.43104 -1.03163,-0.43104 h -4.29384 -4.29388 l -1.48431,-2.24196 c -1.78433,-2.69515 -5.81106,-6.90665 -8.13121,-8.50434 l -1.68347,-1.15927 10.16535,-0.0863 10.16534,-0.0863 2.24309,0.49416 2.24307,0.49416 2.08623,1.0443 2.08624,1.04429 1.8842,1.86195 1.88424,1.86194 0.94876,1.78827 c 0.52183,0.98354 1.18884,2.61971 1.48224,3.63593 l 0.53344,1.84768 -0.0136,2.79086 -0.0136,2.79086 -0.63587,2.01003 c -0.34973,1.10551 -1.12798,2.82703 -1.72943,3.8256 -0.60146,0.99856 -1.09001,1.90307 -1.08564,2.01003 0.005,0.10695 0.49607,0.95981 1.09272,1.89526 1.28098,2.00838 2.14221,4.63823 2.43046,7.42165 l 0.20814,2.01003 -0.48946,2.31638 c -1.33086,6.29828 -5.08058,10.52413 -11.28991,12.72348 l -2.01003,0.71195 -10.97786,0.0921 -10.97787,0.092 z"
       id="path241995" /><rect
       style="fill:#f9f9f9;fill-opacity:1;stroke-width:0.555308"
       id="rect190"
       width="21.933243"
       height="40.151466"
       x="266.43008"
       y="-290.15564"
       ry="0"
       transform="rotate(90)" /><rect
       style="opacity:0.8;fill:#f9f9f9;fill-opacity:1;stroke-width:0.551761"
       id="rect190-2"
       width="21.653898"
       height="40.151466"
       x="266.70941"
       y="-241.71823"
       ry="0"
       transform="rotate(90)" /><rect
       style="opacity:0.6;fill:#f9f9f9;fill-opacity:1;stroke-width:0.551761"
       id="rect190-2-2"
       width="21.653898"
       height="40.151466"
       x="266.70941"
       y="-193.28081"
       ry="0"
       transform="rotate(90)" /><rect
       style="opacity:0.4;fill:#f9f9f9;fill-opacity:1;stroke-width:0.551761"
       id="rect190-2-2-3"
       width="21.653898"
       height="40.151466"
       x="266.70941"
       y="-144.84338"
       ry="0"
       transform="rotate(90)" /><rect
       style="opacity:0.2;fill:#f9f9f9;fill-opacity:1;stroke-width:0.551761"
       id="rect190-2-2-3-3"
       width="21.653898"
       height="40.151466"
       x="266.70941"
       y="-96.40596"
       ry="0"
       transform="rotate(90)" /></g><g
     inkscape:groupmode="layer"
     id="layer6"
     inkscape:label="hex2" /></svg>
